<svg width="453.1289916992187px" height="120.8px" xmlns="http://www.w3.org/2000/svg" viewBox="23.435504150390642 14.600000000000001 453.1289916992187 120.8" style="background: rgba(0, 0, 0, 0);" preserveAspectRatio="xMidYMid"><defs><filter id="editing-hole" x="-100%" y="-100%" width="300%" height="300%"><feFlood flood-color="#000" result="black"></feFlood><feMorphology operator="dilate" radius="2" in="SourceGraphic" result="erode"></feMorphology><feGaussianBlur in="erode" stdDeviation="4" result="blur"></feGaussianBlur><feOffset in="blur" dx="2" dy="2" result="offset"></feOffset><feComposite operator="atop" in="offset" in2="black" result="merge"></feComposite><feComposite operator="in" in="merge" in2="SourceGraphic" result="inner-shadow"></feComposite></filter></defs><g filter="url(#editing-hole)"><g transform="translate(96.76832032203674, 104.47000122070312)"><path d="M42.62-26.56L42.62-26.56L42.62-26.56Q42.62 0.70 13.06 0.70L13.06 0.70L13.06 0.70Q8.32 0.70 0.51-0.45L0.51-0.45L7.68-38.27L7.68-38.27Q8.19-40.83 8.51-42.30L8.51-42.30L8.51-42.30Q18.24-43.01 22.56-43.01L22.56-43.01L22.56-43.01Q26.88-43.01 30.85-42.11L30.85-42.11L30.85-42.11Q34.82-41.22 37.44-39.23L37.44-39.23L37.44-39.23Q42.62-35.33 42.62-26.56ZM29.44-28.93L29.44-28.93L29.44-28.93Q29.44-38.46 22.59-38.46L22.59-38.46L21.95-38.46L21.95-38.46Q21.63-38.46 21.31-38.40L21.31-38.40L14.72-4.03L14.72-4.03Q14.98-3.90 15.23-3.90L15.23-3.90L15.74-3.90L15.74-3.90Q18.11-3.90 20.58-5.38L20.58-5.38L20.58-5.38Q23.04-6.85 24.96-9.86L24.96-9.86L24.96-9.86Q29.44-16.83 29.44-28.93ZM48.67-1.92L48.67-1.92L48.67-1.92Q47.17-3.58 46.50-6.21L46.50-6.21L46.50-6.21Q45.82-8.83 45.82-13.12L45.82-13.12L45.82-13.12Q45.82-17.41 47.30-21.31L47.30-21.31L47.30-21.31Q48.77-25.22 51.46-28.03L51.46-28.03L51.46-28.03Q56.96-33.92 66.05-33.92L66.05-33.92L66.05-33.92Q69.31-33.92 71.68-32.83L71.68-32.83L82.62-33.92L77.89-8.96L77.89-8.96Q77.70-8.19 77.70-6.78L77.70-6.78L77.70-6.78Q77.70-5.38 78.56-4.48L78.56-4.48L78.56-4.48Q79.42-3.58 80.70-3.46L80.70-3.46L80.70-3.46Q80.06-1.28 77.73 0L77.73 0L77.73 0Q75.39 1.28 72.77 1.28L72.77 1.28L72.77 1.28Q70.14 1.28 68.38 0.29L68.38 0.29L68.38 0.29Q66.62-0.70 66.11-2.37L66.11-2.37L66.11-2.37Q65.09-0.77 62.91 0.26L62.91 0.26L62.91 0.26Q60.74 1.28 57.82 1.28L57.82 1.28L57.82 1.28Q54.91 1.28 52.54 0.51L52.54 0.51L52.54 0.51Q50.18-0.26 48.67-1.92ZM62.18-27.90L62.18-27.90L62.18-27.90Q61.44-26.75 60.80-24.80L60.80-24.80L60.80-24.80Q60.16-22.85 59.10-17.63L59.10-17.63L59.10-17.63Q58.05-12.42 58.05-8.70L58.05-8.70L58.05-8.70Q58.05-4.99 58.62-3.90L58.62-3.90L58.62-3.90Q59.20-2.82 60.22-2.82L60.22-2.82L60.22-2.82Q62.27-2.82 63.78-4.77L63.78-4.77L63.78-4.77Q65.28-6.72 65.86-10.18L65.86-10.18L69.25-28.93L69.25-28.93Q67.90-30.08 66.34-30.08L66.34-30.08L66.34-30.08Q64.77-30.08 63.84-29.57L63.84-29.57L63.84-29.57Q62.91-29.06 62.18-27.90ZM105.98-33.92L105.98-33.92L105.98-33.92Q108.29-33.92 110.08-33.41L110.08-33.41L110.08-33.41Q110.14-33.66 110.27-34.37L110.27-34.37L110.59-36.35L110.59-36.35Q110.85-37.63 111.23-39.74L111.23-39.74L112.26-44.80L124.99-46.08L117.89-8.96L117.89-8.96Q117.82-8.58 117.82-7.94L117.82-7.94L117.82-6.91L117.82-6.91Q117.82-5.50 118.53-4.45L118.53-4.45L118.53-4.45Q119.23-3.39 120.38-3.39L120.38-3.39L120.38-3.39Q119.10-0.38 115.20 0.90L115.20 0.90L115.20 0.90Q113.86 1.28 111.97 1.28L111.97 1.28L111.97 1.28Q110.08 1.28 108.35 0.29L108.35 0.29L108.35 0.29Q106.62-0.70 106.11-2.37L106.11-2.37L106.11-2.37Q105.09-0.70 103.04 0.29L103.04 0.29L103.04 0.29Q100.99 1.28 98.02 1.28L98.02 1.28L98.02 1.28Q95.04 1.28 92.58 0.51L92.58 0.51L92.58 0.51Q90.11-0.26 88.58-1.92L88.58-1.92L88.58-1.92Q85.76-5.18 85.76-12.61L85.76-12.61L85.76-12.61Q85.76-22.21 91.39-28.03L91.39-28.03L91.39-28.03Q97.02-33.92 105.98-33.92ZM105.54-30.08L105.54-30.08L105.54-30.08Q103.17-30.08 101.89-27.52L101.89-27.52L101.89-27.52Q100.61-24.96 99.30-18.62L99.30-18.62L99.30-18.62Q97.98-12.29 97.98-6.59L97.98-6.59L97.98-6.59Q97.98-2.69 100.29-2.69L100.29-2.69L100.29-2.69Q102.34-2.69 103.78-4.74L103.78-4.74L103.78-4.74Q105.22-6.78 105.79-10.18L105.79-10.18L109.25-28.93L109.25-28.93Q107.90-30.08 105.54-30.08ZM145.98-33.92L145.98-33.92L145.98-33.92Q148.29-33.92 150.08-33.41L150.08-33.41L150.08-33.41Q150.14-33.66 150.27-34.37L150.27-34.37L150.59-36.35L150.59-36.35Q150.85-37.63 151.23-39.74L151.23-39.74L152.26-44.80L164.99-46.08L157.89-8.96L157.89-8.96Q157.82-8.58 157.82-7.94L157.82-7.94L157.82-6.91L157.82-6.91Q157.82-5.50 158.53-4.45L158.53-4.45L158.53-4.45Q159.23-3.39 160.38-3.39L160.38-3.39L160.38-3.39Q159.10-0.38 155.20 0.90L155.20 0.90L155.20 0.90Q153.86 1.28 151.97 1.28L151.97 1.28L151.97 1.28Q150.08 1.28 148.35 0.29L148.35 0.29L148.35 0.29Q146.62-0.70 146.11-2.37L146.11-2.37L146.11-2.37Q145.09-0.70 143.04 0.29L143.04 0.29L143.04 0.29Q140.99 1.28 138.02 1.28L138.02 1.28L138.02 1.28Q135.04 1.28 132.58 0.51L132.58 0.51L132.58 0.51Q130.11-0.26 128.58-1.92L128.58-1.92L128.58-1.92Q125.76-5.18 125.76-12.61L125.76-12.61L125.76-12.61Q125.76-22.21 131.39-28.03L131.39-28.03L131.39-28.03Q137.02-33.92 145.98-33.92ZM145.54-30.08L145.54-30.08L145.54-30.08Q143.17-30.08 141.89-27.52L141.89-27.52L141.89-27.52Q140.61-24.96 139.30-18.62L139.30-18.62L139.30-18.62Q137.98-12.29 137.98-6.59L137.98-6.59L137.98-6.59Q137.98-2.69 140.29-2.69L140.29-2.69L140.29-2.69Q142.34-2.69 143.78-4.74L143.78-4.74L143.78-4.74Q145.22-6.78 145.79-10.18L145.79-10.18L149.25-28.93L149.25-28.93Q147.90-30.08 145.54-30.08ZM186.18-7.23L186.18-7.23L186.18-7.23Q182.85-3.78 176.77-3.78L176.77-3.78L176.77-3.78Q169.15-3.78 167.55-9.34L167.55-9.34L167.55-9.34Q167.04-11.01 167.04-12.86L167.04-12.86L167.04-12.86Q167.04-14.72 167.42-16.64L167.42-16.64L170.43-32.64L183.42-33.92L179.90-15.30L179.90-15.30Q179.78-14.46 179.58-13.57L179.58-13.57L179.58-13.57Q179.39-12.67 179.39-11.74L179.39-11.74L179.39-11.74Q179.39-10.82 179.71-10.21L179.71-10.21L179.71-10.21Q180.03-9.60 180.48-9.22L180.48-9.22L180.48-9.22Q181.25-8.70 182.62-8.70L182.62-8.70L182.62-8.70Q184-8.70 185.18-10.37L185.18-10.37L185.18-10.37Q186.37-12.03 186.94-14.91L186.94-14.91L190.46-32.64L203.07-33.92L198.27-8.77L198.27-8.77Q195.90 3.52 191.04 8.38L191.04 8.38L191.04 8.38Q188.54 10.88 185.31 11.87L185.31 11.87L185.31 11.87Q182.08 12.86 177.92 12.86L177.92 12.86L177.92 12.86Q171.20 12.86 167.36 10.75L167.36 10.75L167.36 10.75Q163.52 8.64 163.52 5.12L163.52 5.12L163.52 5.12Q163.52 2.50 165.50 0.99L165.50 0.99L165.50 0.99Q167.49-0.51 170.56-0.51L170.56-0.51L170.56-0.51Q173.25-0.51 175.30 0.64L175.30 0.64L175.30 0.64Q176.51 1.34 177.09 2.24L177.09 2.24L177.09 2.24Q175.62 3.52 175.62 5.63L175.62 5.63L175.62 5.63Q175.62 8.45 178.18 8.45L178.18 8.45L178.18 8.45Q182.40 8.45 184.83-1.28L184.83-1.28L184.83-1.28Q185.54-4.16 186.18-7.23ZM225.54-33.92L225.54-33.92L225.54-33.92Q227.84-33.92 229.63-33.41L229.63-33.41L229.63-33.41Q229.70-33.66 229.82-34.37L229.82-34.37L230.14-36.35L230.14-36.35Q230.40-37.63 230.78-39.74L230.78-39.74L231.81-44.80L244.54-46.08L237.44-8.96L237.44-8.96Q237.38-8.58 237.38-7.94L237.38-7.94L237.38-6.91L237.38-6.91Q237.38-5.50 238.08-4.45L238.08-4.45L238.08-4.45Q238.78-3.39 239.94-3.39L239.94-3.39L239.94-3.39Q238.66-0.38 234.75 0.90L234.75 0.90L234.75 0.90Q233.41 1.28 231.52 1.28L231.52 1.28L231.52 1.28Q229.63 1.28 227.90 0.29L227.90 0.29L227.90 0.29Q226.18-0.70 225.66-2.37L225.66-2.37L225.66-2.37Q224.64-0.70 222.59 0.29L222.59 0.29L222.59 0.29Q220.54 1.28 217.57 1.28L217.57 1.28L217.57 1.28Q214.59 1.28 212.13 0.51L212.13 0.51L212.13 0.51Q209.66-0.26 208.13-1.92L208.13-1.92L208.13-1.92Q205.31-5.18 205.31-12.61L205.31-12.61L205.31-12.61Q205.31-22.21 210.94-28.03L210.94-28.03L210.94-28.03Q216.58-33.92 225.54-33.92ZM225.09-30.08L225.09-30.08L225.09-30.08Q222.72-30.08 221.44-27.52L221.44-27.52L221.44-27.52Q220.16-24.96 218.85-18.62L218.85-18.62L218.85-18.62Q217.54-12.29 217.54-6.59L217.54-6.59L217.54-6.59Q217.54-2.69 219.84-2.69L219.84-2.69L219.84-2.69Q221.89-2.69 223.33-4.74L223.33-4.74L223.33-4.74Q224.77-6.78 225.34-10.18L225.34-10.18L228.80-28.93L228.80-28.93Q227.46-30.08 225.09-30.08ZM259.33 1.28L259.33 1.28L259.33 1.28Q245.25 1.28 245.25-11.97L245.25-11.97L245.25-11.97Q245.25-21.38 250.43-27.46L250.43-27.46L250.43-27.46Q255.94-33.92 265.47-33.92L265.47-33.92L265.47-33.92Q272.38-33.92 275.90-30.72L275.90-30.72L275.90-30.72Q279.42-27.52 279.42-20.80L279.42-20.80L279.42-20.80Q279.42-10.56 273.92-4.61L273.92-4.61L273.92-4.61Q268.54 1.28 259.33 1.28ZM260.99-26.56L260.99-26.56L260.99-26.56Q260.22-24.83 259.62-22.24L259.62-22.24L259.62-22.24Q259.01-19.65 258.24-15.55L258.24-15.55L258.24-15.55Q257.47-11.46 257.47-6.40L257.47-6.40L257.47-6.40Q257.47-4.74 258.02-3.65L258.02-3.65L258.02-3.65Q258.56-2.56 260.03-2.56L260.03-2.56L260.03-2.56Q261.50-2.56 262.43-3.26L262.43-3.26L262.43-3.26Q263.36-3.97 264.06-5.63L264.06-5.63L264.06-5.63Q265.34-8.58 266.37-14.05L266.37-14.05L266.37-14.05Q267.39-19.52 267.49-21.89L267.49-21.89L267.49-21.89Q267.58-24.26 267.58-26.02L267.58-26.02L267.58-26.02Q267.58-27.78 267.07-28.93L267.07-28.93L267.07-28.93Q266.56-30.08 265.12-30.08L265.12-30.08L265.12-30.08Q263.68-30.08 262.72-29.18L262.72-29.18L262.72-29.18Q261.76-28.29 260.99-26.56ZM308.16-37.12L308.16-37.12L308.16-37.12Q309.06-38.66 309.06-40.32L309.06-40.32L309.06-40.32Q309.06-43.26 307.26-43.26L307.26-43.26L307.26-43.26Q304.51-43.26 303.36-37.63L303.36-37.63L302.40-32.64L308.22-32.64L307.84-29.76L301.82-29.76L296.06 0L283.14 1.28L289.28-29.76L284.74-29.76L285.31-32.64L289.79-32.64L291.14-37.70L291.14-37.70Q292.29-42.37 297.22-44.54L297.22-44.54L297.22-44.54Q300.80-46.08 306.82-46.08L306.82-46.08L306.82-46.08Q312.83-46.08 315.52-44.54L315.52-44.54L315.52-44.54Q318.21-43.01 318.21-40.96L318.21-40.96L318.21-40.96Q318.21-38.91 316.61-37.63L316.61-37.63L316.61-37.63Q315.01-36.35 313.22-36.35L313.22-36.35L313.22-36.35Q309.70-36.35 308.16-37.12Z" fill="#ccc"></path></g></g><style>text {
  font-size: 64px;
  font-family: Arial Black;
  dominant-baseline: central;
  text-anchor: middle;
}</style></svg>